<?xml version="1.0" encoding="UTF-8"?>
<svg version="1.1" xmlns="http://www.w3.org/2000/svg" width="666" height="375">
<path d="M0 0 C20.79 0 41.58 0 63 0 C65 10 65 10 65 14 C58.07 14 51.14 14 44 14 C43.505 10.04 43.505 10.04 43 6 C35.08 6 27.16 6 19 6 C18.67 8.64 18.34 11.28 18 14 C11.4 14 4.8 14 -2 14 C-2 7 -2 7 0 0 Z " fill="#1D1D1D" transform="translate(113,216)"/>
<path d="M0 0 C7.41460363 -0.02255577 14.82918865 -0.04091784 22.24381924 -0.05181217 C25.68640348 -0.05703982 29.12896312 -0.06413531 32.5715332 -0.07543945 C36.52555043 -0.08834235 40.47955756 -0.09322918 44.43359375 -0.09765625 C46.29605995 -0.10539818 46.29605995 -0.10539818 48.19615173 -0.11329651 C49.33725906 -0.11337204 50.47836639 -0.11344757 51.65405273 -0.11352539 C52.664431 -0.115746 53.67480927 -0.11796661 54.71580505 -0.12025452 C57 0 57 0 58 1 C58.14393457 5.33530918 58.04212061 9.66157731 58 14 C51.07 14 44.14 14 37 14 C36.34 12.02 35.68 10.04 35 8 C30.71 8 26.42 8 22 8 C21.34 9.98 20.68 11.96 20 14 C13.4 14 6.8 14 0 14 C0 9.38 0 4.76 0 0 Z " fill="#101010" transform="translate(262,144)"/>
<path d="M0 0 C1.11785889 -0.00315216 2.23571777 -0.00630432 3.38745117 -0.009552 C5.21240112 -0.00651566 5.21240112 -0.00651566 7.07421875 -0.00341797 C8.31341064 -0.00437469 9.55260254 -0.00533142 10.8293457 -0.00631714 C13.45560156 -0.00699921 16.08176508 -0.00564085 18.70800781 -0.00097656 C22.08100589 0.00472073 25.4539244 0.00144151 28.82691956 -0.00454903 C32.03435552 -0.00902317 35.24178175 -0.00589429 38.44921875 -0.00341797 C39.66585205 -0.0054422 40.88248535 -0.00746643 42.13598633 -0.009552 C43.81277466 -0.00482376 43.81277466 -0.00482376 45.5234375 0 C46.51303467 0.00079559 47.50263184 0.00159119 48.5222168 0.00241089 C50.76171875 0.12939453 50.76171875 0.12939453 51.76171875 1.12939453 C51.90565332 5.46470371 51.80383936 9.79097185 51.76171875 14.12939453 C45.16171875 14.12939453 38.56171875 14.12939453 31.76171875 14.12939453 C31.26671875 10.66439453 31.26671875 10.66439453 30.76171875 7.12939453 C25.81171875 7.12939453 20.86171875 7.12939453 15.76171875 7.12939453 C15.76171875 9.10939453 15.76171875 11.08939453 15.76171875 13.12939453 C14.17234319 14.71877009 12.52272029 14.25920596 10.32421875 14.26220703 C8.98230469 14.26414063 8.98230469 14.26414063 7.61328125 14.26611328 C6.67226562 14.26224609 5.73125 14.25837891 4.76171875 14.25439453 C3.35019531 14.26019531 3.35019531 14.26019531 1.91015625 14.26611328 C1.01554688 14.26482422 0.1209375 14.26353516 -0.80078125 14.26220703 C-1.62707031 14.2610791 -2.45335937 14.25995117 -3.3046875 14.25878906 C-5.23828125 14.12939453 -5.23828125 14.12939453 -6.23828125 13.12939453 C-6.33701941 11.13139881 -6.36799924 9.12982295 -6.36328125 7.12939453 C-6.36585938 6.03626953 -6.3684375 4.94314453 -6.37109375 3.81689453 C-6.14005509 -0.8582408 -4.18493425 0.00336451 0 0 Z " fill="#0E0E0E" transform="translate(197.23828125,143.87060546875)"/>
<path d="M0 0 C6.27 0 12.54 0 19 0 C19 2.31 19 4.62 19 7 C23.95 7 28.9 7 34 7 C33.505 4.03 33.505 4.03 33 1 C34 0 34 0 35.85766602 -0.11352539 C37.04380493 -0.10567017 37.04380493 -0.10567017 38.25390625 -0.09765625 C39.53491211 -0.09282227 39.53491211 -0.09282227 40.84179688 -0.08789062 C41.73962891 -0.07951172 42.63746094 -0.07113281 43.5625 -0.0625 C44.46419922 -0.05798828 45.36589844 -0.05347656 46.29492188 -0.04882812 C48.53001314 -0.03700225 50.76497437 -0.0205222 53 0 C53.50961846 1.39235043 54.00724909 2.78909118 54.5 4.1875 C54.7784375 4.96480469 55.056875 5.74210938 55.34375 6.54296875 C56 9 56 9 56 14 C36.53 14 17.06 14 -3 14 C-2 7 -2 7 0 0 Z " fill="#131313" transform="translate(118,197)"/>
<path d="M0 0 C6.6 0 13.2 0 20 0 C20.66 1.98 21.32 3.96 22 6 C24.67643957 6.89214652 26.25384378 7.13540211 29 7.125 C30.0209375 7.12886719 30.0209375 7.12886719 31.0625 7.1328125 C33.21874781 7.06631126 33.21874781 7.06631126 36 6 C36.33 4.02 36.66 2.04 37 0 C43.93 0 50.86 0 58 0 C58.09765625 10.05859375 58.09765625 10.05859375 58 13 C57 14 57 14 54.71580505 14.12025452 C53.70542679 14.11803391 52.69504852 14.11581329 51.65405273 14.11352539 C50.5129454 14.11344986 49.37183807 14.11337433 48.19615173 14.11329651 C46.9545076 14.10813522 45.71286346 14.10297394 44.43359375 14.09765625 C42.53795433 14.09553383 42.53795433 14.09553383 40.60401917 14.09336853 C37.23875111 14.08870582 33.8735501 14.0797148 30.50830078 14.06866455 C27.0765033 14.05844846 23.64469891 14.05387049 20.21289062 14.04882812 C13.47523936 14.0377738 6.73762889 14.02049637 0 14 C0 9.38 0 4.76 0 0 Z " fill="#1E1E1E" transform="translate(262,216)"/>
<path d="M0 0 C7.26 0 14.52 0 22 0 C22 2.64 22 5.28 22 8 C26.95 7.67 31.9 7.34 37 7 C37.33 4.69 37.66 2.38 38 0 C44.6 0 51.2 0 58 0 C58 4.62 58 9.24 58 14 C50.58539637 14.02255577 43.17081135 14.04091784 35.75618076 14.05181217 C32.31359652 14.05703982 28.87103688 14.06413531 25.4284668 14.07543945 C21.47444957 14.08834235 17.52044244 14.09322918 13.56640625 14.09765625 C11.70394005 14.10539818 11.70394005 14.10539818 9.80384827 14.11329651 C8.09218727 14.11340981 8.09218727 14.11340981 6.34594727 14.11352539 C5.335569 14.115746 4.32519073 14.11796661 3.28419495 14.12025452 C1 14 1 14 0 13 C-0.14393457 8.66469082 -0.04212061 4.33842269 0 0 Z " fill="#1C1C1C" transform="translate(191,216)"/>
<path d="M0 0 C5.74335834 -0.09990454 11.48619565 -0.17195122 17.23022461 -0.21972656 C19.17855659 -0.23967151 21.12683006 -0.26683757 23.07495117 -0.30175781 C48.11105532 -0.73884512 48.11105532 -0.73884512 56.83276367 5.26074219 C58.54732138 7.81554435 58.19969044 10.00464346 58 13 C51.63207776 13.07656229 45.26427584 13.12881323 38.89599609 13.16479492 C36.73319055 13.17980768 34.57041507 13.20022416 32.40771484 13.22631836 C29.28475489 13.26303366 26.1622002 13.27980196 23.0390625 13.29296875 C21.60719101 13.31619453 21.60719101 13.31619453 20.14639282 13.33988953 C13.74057858 13.34146692 7.94236999 12.50616315 2 10 C0 8 0 8 -0.1953125 6.0546875 C-0.13020833 4.03645833 -0.06510417 2.01822917 0 0 Z " fill="#0D0D0D" transform="translate(262,180)"/>
<path d="M0 0 C0.97484848 0.00222061 1.94969696 0.00444122 2.9540863 0.00672913 C4.05515213 0.00680466 5.15621796 0.00688019 6.29064941 0.00695801 C8.08749428 0.01469994 8.08749428 0.01469994 9.92063904 0.02259827 C11.14000656 0.02401321 12.35937408 0.02542816 13.61569214 0.02688599 C17.52856349 0.03250485 21.4413786 0.04506055 25.35423279 0.05775452 C27.99941426 0.06276709 30.64459662 0.06733041 33.28977966 0.07142639 C39.79045005 0.08248041 46.2910874 0.09923688 52.79173279 0.12025452 C52.79173279 4.12025452 52.79173279 4.12025452 51.14720154 5.78822327 C50.43177185 6.28966858 49.71634216 6.79111389 48.97923279 7.30775452 C47.91768982 8.07152405 47.91768982 8.07152405 46.83470154 8.85072327 C43.64698928 10.8316152 41.07923031 11.24428746 37.41209412 11.23377991 C36.53140762 11.23370438 35.65072113 11.23362885 34.74334717 11.23355103 C33.79638474 11.22838974 32.8494223 11.22322845 31.87376404 11.21791077 C30.9013829 11.21649582 29.92900177 11.21508087 28.92715454 11.21362305 C25.81948275 11.20802268 22.71188283 11.19547014 19.60423279 11.18275452 C17.49811404 11.17773956 15.39199416 11.17317665 13.28587341 11.16908264 C8.12113215 11.15805314 2.95644466 11.14078827 -2.20826721 11.12025452 C-3.83478243 7.86722408 -3.32279877 4.7279985 -3.20826721 1.12025452 C-2.20826721 0.12025452 -2.20826721 0.12025452 0 0 Z " fill="#161616" transform="translate(194.20826721191406,232.87974548339844)"/>
<path d="M0 0 C1.221782 0.00607269 1.221782 0.00607269 2.46824646 0.01226807 C3.30971725 0.01035461 4.15118805 0.00844116 5.01815796 0.00646973 C6.80450234 0.00510662 8.59085657 0.00881181 10.37718201 0.01715088 C13.08550439 0.02775568 15.79314921 0.01730868 18.50144958 0.00445557 C20.24038332 0.00577896 21.97931664 0.00834507 23.71824646 0.01226807 C24.51859818 0.0082196 25.31894989 0.00417114 26.14355469 0 C32.24023575 0.0496791 39.02873043 0.29071945 44.24949646 3.71539307 C48.05809021 8.05567084 48.05809021 8.05567084 48.05809021 10.27789307 C40.24356269 10.3031587 32.42904563 10.32072412 24.61448669 10.33282471 C21.9536754 10.33786689 19.29286689 10.34470043 16.63206482 10.35333252 C12.81703505 10.36540315 9.00204177 10.37112236 5.18699646 10.37554932 C3.3901516 10.38329124 3.3901516 10.38329124 1.55700684 10.39118958 C-0.0945919 10.39130287 -0.0945919 10.39130287 -1.77955627 10.39141846 C-2.75440475 10.39363907 -3.72925323 10.39585968 -4.73364258 10.39814758 C-6.94190979 10.27789307 -6.94190979 10.27789307 -7.94190979 9.27789307 C-8.12940979 5.84039307 -8.12940979 5.84039307 -7.94190979 2.27789307 C-5.34380055 -0.32021617 -3.53990175 0.02969187 0 0 Z " fill="#111111" transform="translate(198.94190979003906,129.72210693359375)"/>
<path d="M0 0 C17.49 0 34.98 0 53 0 C53 1.32 53 2.64 53 4 C45.53846601 11.12237335 39.4114589 11.34566041 29.35595703 11.31567383 C27.13914534 11.31252012 24.92367751 11.33596548 22.70703125 11.36132812 C21.28646 11.36360208 19.8658852 11.36430417 18.4453125 11.36328125 C17.16156738 11.36626221 15.87782227 11.36924316 14.55517578 11.37231445 C10.70309434 10.96890667 8.28134725 10.02512494 5 8 C3.8125 5.875 3.8125 5.875 3 4 C2.01 3.67 1.02 3.34 0 3 C0 2.01 0 1.02 0 0 Z " fill="#1B1B1B" transform="translate(264,233)"/>
<path d="M0 0 C10.23 0 20.46 0 31 0 C34 11 34 11 34 14 C21.79 14 9.58 14 -3 14 C-1 2 -1 2 0 0 Z " fill="#0C0C0C" transform="translate(129,144)"/>
<path d="M0 0 C1.485 -0.01836914 1.485 -0.01836914 3 -0.03710938 C17.85084911 -0.0664976 17.85084911 -0.0664976 23.625 4.625 C25.625 7.1875 25.625 7.1875 26.625 10.1875 C9.465 10.1875 -7.695 10.1875 -25.375 10.1875 C-23.37779497 5.19448742 -22.74049818 3.90380998 -18.375 1.1875 C-12.28378717 -0.04037294 -6.19581404 0.00400246 0 0 Z " fill="#121212" transform="translate(290.375,129.8125)"/>
<path d="M0 0 C4.14581887 -0.02886751 8.29161216 -0.04675327 12.4375 -0.0625 C14.21350586 -0.07506836 14.21350586 -0.07506836 16.02539062 -0.08789062 C17.15009766 -0.09111328 18.27480469 -0.09433594 19.43359375 -0.09765625 C20.47572021 -0.10289307 21.51784668 -0.10812988 22.59155273 -0.11352539 C25 0 25 0 26 1 C26.14393457 5.33530918 26.04212061 9.66157731 26 14 C19.07 14 12.14 14 5 14 C5 10.7 5 7.4 5 4 C3.35 3.67 1.7 3.34 0 3 C0 2.01 0 1.02 0 0 Z " fill="#0C0C0C" transform="translate(294,197)"/>
<path d="M0 0 C0.89460937 -0.00128906 1.78921875 -0.00257813 2.7109375 -0.00390625 C3.65195313 -0.00003906 4.59296875 0.00382813 5.5625 0.0078125 C6.97402344 0.00201172 6.97402344 0.00201172 8.4140625 -0.00390625 C9.75597656 -0.00197266 9.75597656 -0.00197266 11.125 0 C11.95128906 0.00112793 12.77757812 0.00225586 13.62890625 0.00341797 C15.5625 0.1328125 15.5625 0.1328125 16.5625 1.1328125 C16.70643457 5.46812168 16.60462061 9.79438981 16.5625 14.1328125 C9.3025 14.1328125 2.0425 14.1328125 -5.4375 14.1328125 C-5.53515625 4.07421875 -5.53515625 4.07421875 -5.4375 1.1328125 C-3.84812444 -0.45656306 -2.19850154 0.00300107 0 0 Z " fill="#1C1C1C" transform="translate(196.4375,196.8671875)"/>
<path d="M0 0 C3.47914941 -0.02887814 6.95826831 -0.04675687 10.4375 -0.0625 C11.92733398 -0.07506836 11.92733398 -0.07506836 13.44726562 -0.08789062 C14.39150391 -0.09111328 15.33574219 -0.09433594 16.30859375 -0.09765625 C17.62041626 -0.10551147 17.62041626 -0.10551147 18.95874023 -0.11352539 C21 0 21 0 22 1 C22.09873816 2.99799572 22.12971799 4.99957158 22.125 7 C22.12886719 8.6396875 22.12886719 8.6396875 22.1328125 10.3125 C22 13 22 13 21 14 C19.52347336 14.09880797 18.04232764 14.13079245 16.5625 14.1328125 C15.22058594 14.13474609 15.22058594 14.13474609 13.8515625 14.13671875 C12.91054687 14.13285156 11.96953125 14.12898437 11 14.125 C9.58847656 14.13080078 9.58847656 14.13080078 8.1484375 14.13671875 C7.25382813 14.13542969 6.35921875 14.13414062 5.4375 14.1328125 C4.61121094 14.13168457 3.78492188 14.13055664 2.93359375 14.12939453 C1 14 1 14 0 13 C-0.07258946 10.81360547 -0.08373783 8.62499611 -0.0625 6.4375 C-0.05347656 5.23996094 -0.04445312 4.04242188 -0.03515625 2.80859375 C-0.02355469 1.88175781 -0.01195312 0.95492187 0 0 Z " fill="#1E1E1E" transform="translate(191,162)"/>
<path d="M0 0 C6 0 6 0 7.6796875 1.3125 C8.78645833 2.875 9.89322917 4.4375 11 6 C11.33 4.02 11.66 2.04 12 0 C13.98 0 15.96 0 18 0 C18 6.6 18 13.2 18 20 C16.02 20 14.04 20 12 20 C10.3203125 18.25 10.3203125 18.25 9.125 16 C8.71507812 15.2575 8.30515625 14.515 7.8828125 13.75 C7.59148438 13.1725 7.30015625 12.595 7 12 C6.855625 13.134375 6.71125 14.26875 6.5625 15.4375 C6 19 6 19 5 20 C3.35 20 1.7 20 0 20 C0 13.4 0 6.8 0 0 Z " fill="#323232" transform="translate(563,219)"/>
<path d="M0 0 C7.26 0 14.52 0 22 0 C22 4.29 22 8.58 22 13 C14.74 13 7.48 13 0 13 C0 8.71 0 4.42 0 0 Z " fill="#171717" transform="translate(191,180)"/>
<path d="M0 0 C6.6 0 13.2 0 20 0 C20.22786458 2.76692708 20.45572917 5.53385417 20.68359375 8.30078125 C20.91812559 11.09375599 20.91812559 11.09375599 22 14 C14.74 14 7.48 14 0 14 C0 9.38 0 4.76 0 0 Z " fill="#1C1C1C" transform="translate(262,162)"/>
<path d="M0 0 C6.6 0 13.2 0 20 0 C20 4.62 20 9.24 20 14 C13.4 14 6.8 14 0 14 C0 9.38 0 4.76 0 0 Z " fill="#1C1C1C" transform="translate(229,162)"/>
<path d="M0 0 C1.18613892 0.00785522 1.18613892 0.00785522 2.39624023 0.01586914 C3.67724609 0.02070313 3.67724609 0.02070313 4.98413086 0.02563477 C5.88196289 0.03401367 6.77979492 0.04239258 7.70483398 0.05102539 C8.6065332 0.05553711 9.50823242 0.06004883 10.43725586 0.06469727 C12.67230988 0.07652295 14.90733 0.09445901 17.14233398 0.11352539 C17.14233398 4.73352539 17.14233398 9.35352539 17.14233398 14.11352539 C10.54233398 14.11352539 3.94233398 14.11352539 -2.85766602 14.11352539 C-2.95532227 4.05493164 -2.95532227 4.05493164 -2.85766602 1.11352539 C-1.85766602 0.11352539 -1.85766602 0.11352539 0 0 Z " fill="#191919" transform="translate(231.857666015625,196.886474609375)"/>
<path d="M0 0 C1.18613892 0.00785522 1.18613892 0.00785522 2.39624023 0.01586914 C3.67724609 0.02070313 3.67724609 0.02070313 4.98413086 0.02563477 C5.88196289 0.03401367 6.77979492 0.04239258 7.70483398 0.05102539 C8.6065332 0.05553711 9.50823242 0.06004883 10.43725586 0.06469727 C12.67234712 0.07652315 14.90730835 0.09300319 17.14233398 0.11352539 C17.00028658 1.69720286 16.85353246 3.28045857 16.70483398 4.86352539 C16.62362305 5.74524414 16.54241211 6.62696289 16.45874023 7.53540039 C16.14233398 10.11352539 16.14233398 10.11352539 15.14233398 14.11352539 C8.87233398 14.11352539 2.60233398 14.11352539 -3.85766602 14.11352539 C-2.91058271 0.17787107 -2.91058271 0.17787107 0 0 Z " fill="#1F1F1F" transform="translate(126.857666015625,161.886474609375)"/>
<path d="M0 0 C6.27 0 12.54 0 19 0 C21 9 21 9 21 14 C14.73 14 8.46 14 2 14 C0 6 0 6 0 0 Z " fill="#1C1C1C" transform="translate(145,162)"/>
<path d="M0 0 C2 3 2 3 2 6 C-1.57644848 7.2380014 -4.33694766 6.74926071 -8 6 C-9.01540112 10.10223585 -9.01540112 10.10223585 -8 14 C-6.68 14 -5.36 14 -4 14 C-4.99 13.67 -5.98 13.34 -7 13 C-7 11.35 -7 9.7 -7 8 C-4.03 8 -1.06 8 2 8 C2 11.96 2 15.92 2 20 C-0.10353495 20.0810206 -2.20795952 20.13919907 -4.3125 20.1875 C-5.48425781 20.22230469 -6.65601563 20.25710937 -7.86328125 20.29296875 C-11 20 -11 20 -12.85546875 18.67578125 C-15.49335178 14.81348835 -15.49286308 10.50617669 -15 6 C-13.76270374 3.15421861 -12.7018305 1.57186189 -10.3125 -0.375 C-6.59533404 -1.37963945 -3.77289217 -0.79109029 0 0 Z " fill="#2A2A2A" transform="translate(417,178)"/>
<path d="M0 0 C1.03125 0.00322266 2.0625 0.00644531 3.125 0.00976562 C4.74535156 0.02233398 4.74535156 0.02233398 6.3984375 0.03515625 C8.03039062 0.04192383 8.03039062 0.04192383 9.6953125 0.04882812 C12.38807539 0.06063849 15.08072938 0.07710847 17.7734375 0.09765625 C20.09565623 3.87126169 19.7734375 5.10965036 19.7734375 10.09765625 C10.5334375 10.09765625 1.2934375 10.09765625 -8.2265625 10.09765625 C-7.8965625 7.12765625 -7.5665625 4.15765625 -7.2265625 1.09765625 C-4.66933021 -0.1809599 -2.85919148 -0.01570984 0 0 Z " fill="#141414" transform="translate(138.2265625,129.90234375)"/>
<path d="M0 0 C3.50730523 0.05646824 6.1489846 0.4154912 9.25 2.1875 C12.6587805 5.94462303 12.844343 8.84392092 12.640625 13.76953125 C12.25 16.1875 12.25 16.1875 10.5 19.3125 C5.56832016 22.15769991 0.81272344 21.58673852 -4.75 21.1875 C-4.77888146 17.87501813 -4.79675799 14.56256833 -4.8125 11.25 C-4.82087891 10.30447266 -4.82925781 9.35894531 -4.83789062 8.38476562 C-4.84111328 7.48564453 -4.84433594 6.58652344 -4.84765625 5.66015625 C-4.85289307 4.82750244 -4.85812988 3.99484863 -4.86352539 3.13696289 C-4.6557807 -0.4304378 -3.72876173 0.18643809 0 0 Z M0.25 6.1875 C0.25 9.4875 0.25 12.7875 0.25 16.1875 C4.06813447 15.91209296 4.06813447 15.91209296 7.25 14.1875 C7.58340471 11.22945427 7.58340471 11.22945427 7.25 8.1875 C4.29622502 5.81769987 4.29622502 5.81769987 0.25 6.1875 Z " fill="#232323" transform="translate(349.75,176.8125)"/>
<path d="M0 0 C6.6 0 13.2 0 20 0 C20 4.29 20 8.58 20 13 C13.4 13 6.8 13 0 13 C0 8.71 0 4.42 0 0 Z " fill="#121212" transform="translate(229,180)"/>
<path d="M0 0 C6.6 0 13.2 0 20 0 C18.125 11.875 18.125 11.875 17 13 C15.5112814 13.08669432 14.018555 13.10703494 12.52734375 13.09765625 C11.62822266 13.09443359 10.72910156 13.09121094 9.80273438 13.08789062 C8.85720703 13.07951172 7.91167969 13.07113281 6.9375 13.0625 C5.98810547 13.05798828 5.03871094 13.05347656 4.06054688 13.04882812 C1.70700469 13.03700128 -0.64650532 13.01906521 -3 13 C-2.01 8.71 -1.02 4.42 0 0 Z " fill="#151515" transform="translate(121,180)"/>
<path d="M0 0 C6.6 0 13.2 0 20 0 C22 7 22 7 22 13 C15.4 13 8.8 13 2 13 C1.34 8.71 0.68 4.42 0 0 Z " fill="#0C0C0C" transform="translate(148,180)"/>
<path d="M0 0 C3.5605817 0.09776164 4.78852915 0.19716368 7.75 2.3125 C10.05538322 7.55200731 9.92619923 13.0339023 8.125 18.4375 C3.92245714 20.87497486 2.22653949 21.62108992 -2.625 20.8125 C-7.41816547 18.7846223 -7.41816547 18.7846223 -8.875 16.4375 C-10.43954881 10.62631872 -9.58735997 7.56084661 -6.875 2.4375 C-4.39423136 -0.04326864 -3.43281791 0.08658443 0 0 Z M-1.875 5.4375 C-4.17327312 7.31688172 -4.17327312 7.31688172 -4.1875 10.375 C-4.15488518 13.43498982 -4.15488518 13.43498982 -2.375 15.3125 C-1.88 15.68375 -1.385 16.055 -0.875 16.4375 C1.8155528 15.21742056 1.8155528 15.21742056 4.125 13.4375 C4.37505386 10.47932893 4.37505386 10.47932893 4.125 7.4375 C3.465 6.7775 2.805 6.1175 2.125 5.4375 C0.805 5.4375 -0.515 5.4375 -1.875 5.4375 Z " fill="#202020" transform="translate(383.875,218.5625)"/>
<path d="M0 0 C2.3515625 0.46484375 2.3515625 0.46484375 4.9765625 2.27734375 C7.0198841 7.01413474 7.11827928 11.38730101 6.3515625 16.46484375 C4.36763543 19.66964901 3.07324058 20.22428439 -0.4609375 21.40234375 C-4.6863652 21.48519527 -6.92062802 20.43838995 -10.6484375 18.46484375 C-12.62647794 14.50876287 -12.06477758 9.77738124 -11.6484375 5.46484375 C-9.23854368 -0.12172829 -5.6107163 -0.3392911 0 0 Z M-6.6484375 7.46484375 C-6.9887671 10.66394199 -7.16992085 12.65654455 -5.3984375 15.40234375 C-3.68441891 16.67935334 -3.68441891 16.67935334 -1.5234375 16.27734375 C0.54120382 15.62128715 0.54120382 15.62128715 1.3515625 13.46484375 C1.59943267 9.31980714 1.59943267 9.31980714 0.3515625 5.46484375 C-3.60301598 5.11660568 -3.60301598 5.11660568 -6.6484375 7.46484375 Z " fill="#252525" transform="translate(539.6484375,218.53515625)"/>
<path d="M0 0 C10.625 -0.125 10.625 -0.125 14 1 C13.98839844 1.70125 13.97679687 2.4025 13.96484375 3.125 C13.91028816 8.86113102 14.14381623 14.32778253 15 20 C13.35 20 11.7 20 10 20 C9.54625 18.865625 9.0925 17.73125 8.625 16.5625 C7.42904194 12.95278308 7.42904194 12.95278308 5 12 C5 14.64 5 17.28 5 20 C3.35 20 1.7 20 0 20 C0 13.4 0 6.8 0 0 Z M5 4 C5 4.99 5 5.98 5 7 C6.32 7 7.64 7 9 7 C8.67 6.01 8.34 5.02 8 4 C7.01 4 6.02 4 5 4 Z " fill="#212121" transform="translate(378,137)"/>
<path d="M0 0 C1.65 0 3.3 0 5 0 C5.06058594 0.91523438 5.12117188 1.83046875 5.18359375 2.7734375 C5.26738281 3.96195313 5.35117187 5.15046875 5.4375 6.375 C5.51871094 7.55835938 5.59992188 8.74171875 5.68359375 9.9609375 C5.81084936 12.91518901 5.81084936 12.91518901 7 15 C7.99 15 8.98 15 10 15 C10.33 10.05 10.66 5.1 11 0 C12.98 0 14.96 0 17 0 C17.10787818 2.77186988 17.18723327 5.53955537 17.25 8.3125 C17.30027344 9.49102539 17.30027344 9.49102539 17.3515625 10.69335938 C17.45075659 16.52101231 17.45075659 16.52101231 15.12890625 18.98828125 C10.83695284 21.02794351 8.88689787 21.29563262 4.25 19.75 C1 18 1 18 0 15 C-0.07029121 12.42734182 -0.09370832 9.88358569 -0.0625 7.3125 C-0.05798828 6.61060547 -0.05347656 5.90871094 -0.04882812 5.18554688 C-0.03706927 3.45699462 -0.01913454 1.72848635 0 0 Z " fill="#343434" transform="translate(440,219)"/>
<path d="M0 0 C2.4375 0.25 2.4375 0.25 5 1 C6.83995874 3.75993811 7.60601763 5.6210617 8.5 8.75 C8.75394531 9.62914062 9.00789063 10.50828125 9.26953125 11.4140625 C9.51058594 12.26742187 9.75164062 13.12078125 10 14 C10.31517578 15.09441406 10.31517578 15.09441406 10.63671875 16.2109375 C11.09570252 17.8059875 11.54861276 19.40278362 12 21 C10.02 21 8.04 21 6 21 C5.67 20.01 5.34 19.02 5 18 C3.02 17.67 1.04 17.34 -1 17 C-1.33 18.32 -1.66 19.64 -2 21 C-3.65 21 -5.3 21 -7 21 C-6.61521615 14.33041329 -4.89445477 4.89445477 0 0 Z M1 9 C1 9.99 1 10.98 1 12 C1.66 12 2.32 12 3 12 C2.67 11.01 2.34 10.02 2 9 C1.67 9 1.34 9 1 9 Z " fill="#262626" transform="translate(496,177)"/>
<path d="M0 0 C6.6 0 13.2 0 20 0 C22 5 22 5 22 11 C15.4 11 8.8 11 2 11 C0 7 0 7 0 0 Z " fill="#1A1A1A" transform="translate(159,233)"/>
<path d="M0 0 C1.17755859 0.02320313 1.17755859 0.02320313 2.37890625 0.046875 C4.4375 0.25 4.4375 0.25 6.4375 1.25 C6.1075 2.9 5.7775 4.55 5.4375 6.25 C3.1275 6.25 0.8175 6.25 -1.5625 6.25 C-0.71365234 6.54003906 -0.71365234 6.54003906 0.15234375 6.8359375 C0.88582031 7.09632813 1.61929687 7.35671875 2.375 7.625 C3.10589844 7.88023437 3.83679688 8.13546875 4.58984375 8.3984375 C6.4375 9.25 6.4375 9.25 7.4375 11.25 C7.47772391 13.5829866 7.48070247 15.91706666 7.4375 18.25 C3.19529427 20.50096631 1.45906796 21.41747016 -3.375 20.625 C-6.5625 19.25 -6.5625 19.25 -8.5625 16.25 C-7.9025 15.26 -7.2425 14.27 -6.5625 13.25 C-4.2525 13.91 -1.9425 14.57 0.4375 15.25 C0.4375 14.59 0.4375 13.93 0.4375 13.25 C-1.2640625 12.816875 -1.2640625 12.816875 -3 12.375 C-4.175625 12.00375 -5.35125 11.6325 -6.5625 11.25 C-7.96185013 8.45129973 -7.81515405 6.34501208 -7.5625 3.25 C-5.33608712 0.2178377 -3.67520219 -0.12109398 0 0 Z " fill="#292929" transform="translate(351.5625,218.75)"/>
<path d="M0 0 C6.6 0 13.2 0 20 0 C20 7 20 7 18 11 C11.4 11 4.8 11 -2 11 C-1 3 -1 3 0 0 Z " fill="#171717" transform="translate(110,233)"/>
<path d="M0 0 C1.19109375 -0.00386719 1.19109375 -0.00386719 2.40625 -0.0078125 C4.5 0.125 4.5 0.125 6.5 1.125 C6.17 2.775 5.84 4.425 5.5 6.125 C2.53 5.63 2.53 5.63 -0.5 5.125 C-0.5 5.455 -0.5 5.785 -0.5 6.125 C0.634375 6.41375 1.76875 6.7025 2.9375 7 C4.113125 7.37125 5.28875 7.7425 6.5 8.125 C8.00934217 11.14368434 7.67510672 13.79797229 7.5 17.125 C6.84 18.115 6.18 19.105 5.5 20.125 C3.22265625 20.5234375 3.22265625 20.5234375 0.5625 20.5 C-0.75041016 20.51160156 -0.75041016 20.51160156 -2.08984375 20.5234375 C-4.90500663 20.05804591 -5.84460617 19.41922031 -7.5 17.125 C-7.1875 14.9375 -7.1875 14.9375 -6.5 13.125 C-3.86 13.455 -1.22 13.785 1.5 14.125 C-1.14 12.805 -3.78 11.485 -6.5 10.125 C-6.5 7.155 -6.5 4.185 -6.5 1.125 C-4.13386544 -0.05806728 -2.63219264 -0.00854608 0 0 Z " fill="#2E2E2E" transform="translate(450.5,136.875)"/>
<path d="M0 0 C1.98 0 3.96 0 6 0 C9.60251779 6.45968707 11.41429736 12.79226072 13 20 C11.02 20 9.04 20 7 20 C6.67 18.35 6.34 16.7 6 15 C4.02 15 2.04 15 0 15 C-0.33 16.65 -0.66 18.3 -1 20 C-2.65 20 -4.3 20 -6 20 C-5.38656907 15.73154313 -4.39373582 11.82872687 -3 7.75 C-2.649375 6.71359375 -2.29875 5.6771875 -1.9375 4.609375 C-1 2 -1 2 0 0 Z M3 9 C2.67 9.66 2.34 10.32 2 11 C2.66 11 3.32 11 4 11 C3.67 10.34 3.34 9.68 3 9 Z " fill="#2A2A2A" transform="translate(349,137)"/>
<path d="M0 0 C1.65 0 3.3 0 5 0 C5 4.62 5 9.24 5 14 C6.65 14 8.3 14 10 14 C10.33 9.38 10.66 4.76 11 0 C12.65 0 14.3 0 16 0 C16.08112454 2.58396679 16.14054748 5.16537568 16.1875 7.75 C16.21263672 8.47960937 16.23777344 9.20921875 16.26367188 9.9609375 C16.3071608 13.15012557 16.19812182 15.5895587 14.80078125 18.484375 C12.44121455 20.47030098 11.05930686 20.53642032 8 20.5 C7.13375 20.5103125 6.2675 20.520625 5.375 20.53125 C3 20 3 20 1.19921875 18.484375 C-0.50939593 14.94470419 -0.31969902 11.5871614 -0.1875 7.75 C-0.17396484 7.00492188 -0.16042969 6.25984375 -0.14648438 5.4921875 C-0.11127204 3.66114584 -0.05746851 1.83047831 0 0 Z " fill="#212121" transform="translate(410,137)"/>
<path d="M0 0 C1.27875 0.00257813 2.5575 0.00515625 3.875 0.0078125 C5.15375 0.00523437 6.4325 0.00265625 7.75 0 C10.875 0.1328125 10.875 0.1328125 11.875 1.1328125 C11.91563832 2.79898365 11.917721 4.46669345 11.875 6.1328125 C10.225 6.1328125 8.575 6.1328125 6.875 6.1328125 C6.875 11.0828125 6.875 16.0328125 6.875 21.1328125 C5.225 21.1328125 3.575 21.1328125 1.875 21.1328125 C0.875 20.1328125 0.875 20.1328125 0.77734375 16.97265625 C0.79474609 15.04099609 0.79474609 15.04099609 0.8125 13.0703125 C0.82152344 11.77996094 0.83054687 10.48960937 0.83984375 9.16015625 C0.85144531 8.16113281 0.86304688 7.16210938 0.875 6.1328125 C-0.775 6.1328125 -2.425 6.1328125 -4.125 6.1328125 C-4.167721 4.46669345 -4.16563832 2.79898365 -4.125 1.1328125 C-3.125 0.1328125 -3.125 0.1328125 0 0 Z " fill="#3C3C3C" transform="translate(462.125,176.8671875)"/>
<path d="M0 0 C5.28 0 10.56 0 16 0 C16 1.65 16 3.3 16 5 C14.35 5 12.7 5 11 5 C11 9.95 11 14.9 11 20 C9.02 20 7.04 20 5 20 C5 15.05 5 10.1 5 5 C3.35 5 1.7 5 0 5 C0 3.35 0 1.7 0 0 Z " fill="#3C3C3C" transform="translate(473,219)"/>
<path d="M0 0 C1.65 0.33 3.3 0.66 5 1 C5 5.95 5 10.9 5 16 C7.64 16 10.28 16 13 16 C13 17.65 13 19.3 13 21 C8.38 21 3.76 21 -1 21 C-1.02683436 17.68744674 -1.0467578 14.37510817 -1.0625 11.0625 C-1.07087891 10.11697266 -1.07925781 9.17144531 -1.08789062 8.19726562 C-1.09111328 7.29814453 -1.09433594 6.39902344 -1.09765625 5.47265625 C-1.10289307 4.64000244 -1.10812988 3.80734863 -1.11352539 2.94946289 C-1 1 -1 1 0 0 Z " fill="#343434" transform="translate(524,177)"/>
<path d="M0 0 C6.93 0 13.86 0 21 0 C21 1.98 21 3.96 21 6 C19.44393249 7.55606751 17.94042629 7.12970769 15.78125 7.1328125 C14.50701172 7.13474609 14.50701172 7.13474609 13.20703125 7.13671875 C11.86705078 7.13091797 11.86705078 7.13091797 10.5 7.125 C9.60667969 7.12886719 8.71335937 7.13273438 7.79296875 7.13671875 C6.94347656 7.13542969 6.09398437 7.13414062 5.21875 7.1328125 C4.43435547 7.13168457 3.64996094 7.13055664 2.84179688 7.12939453 C1 7 1 7 0 6 C0 4.02 0 2.04 0 0 Z " fill="#1F1F1F" transform="translate(299,162)"/>
<path d="M0 0 C1.65 0 3.3 0 5 0 C5 5.28 5 10.56 5 16 C7.97 16 10.94 16 14 16 C14 17.32 14 18.64 14 20 C9.38 20 4.76 20 0 20 C0 13.4 0 6.8 0 0 Z " fill="#2B2B2B" transform="translate(411,219)"/>
<path d="M0 0 C1.65 0.33 3.3 0.66 5 1 C5 7.6 5 14.2 5 21 C3.02 21 1.04 21 -1 21 C-1.02888146 17.68751813 -1.04675799 14.37506833 -1.0625 11.0625 C-1.07087891 10.11697266 -1.07925781 9.17144531 -1.08789062 8.19726562 C-1.09111328 7.29814453 -1.09433594 6.39902344 -1.09765625 5.47265625 C-1.10289307 4.64000244 -1.10812988 3.80734863 -1.11352539 2.94946289 C-1 1 -1 1 0 0 Z " fill="#373737" transform="translate(380,177)"/>
<path d="M0 0 C3.69230769 0.69230769 3.69230769 0.69230769 5 2 C5.0983721 3.33043625 5.13078592 4.66593344 5.1328125 6 C5.13410156 6.804375 5.13539063 7.60875 5.13671875 8.4375 C5.13285156 9.283125 5.12898438 10.12875 5.125 11 C5.12886719 11.845625 5.13273437 12.69125 5.13671875 13.5625 C5.13542969 14.366875 5.13414062 15.17125 5.1328125 16 C5.13168457 16.7425 5.13055664 17.485 5.12939453 18.25 C5 20 5 20 4 21 C2.33382885 21.04063832 0.66611905 21.042721 -1 21 C-1.02888146 17.68751813 -1.04675799 14.37506833 -1.0625 11.0625 C-1.07087891 10.11697266 -1.07925781 9.17144531 -1.08789062 8.19726562 C-1.09111328 7.29814453 -1.09433594 6.39902344 -1.09765625 5.47265625 C-1.10289307 4.64000244 -1.10812988 3.80734863 -1.11352539 2.94946289 C-1 1 -1 1 0 0 Z " fill="#323232" transform="translate(438,177)"/>
<path d="M0 0 C6.6 0 13.2 0 20 0 C20 1.98 20 3.96 20 6 C13.4 6 6.8 6 0 6 C0 4.02 0 2.04 0 0 Z " fill="#2A2A2A" transform="translate(262,205)"/>
<path d="M0 0 C1.65 0 3.3 0 5 0 C5 6.6 5 13.2 5 20 C3.35 20 1.7 20 0 20 C0 13.4 0 6.8 0 0 Z " fill="#2C2C2C" transform="translate(505,219)"/>
<path d="M0 0 C8.25 0 16.5 0 25 0 C25 0.33 25 0.66 25 1 C19.06 1.33 13.12 1.66 7 2 C6.67 5.96 6.34 9.92 6 14 C5.67 14 5.34 14 5 14 C5 10.7 5 7.4 5 4 C3.35 3.67 1.7 3.34 0 3 C0 2.01 0 1.02 0 0 Z " fill="#868686" transform="translate(294,197)"/>
<path d="M0 0 C1.45823212 -0.0270043 2.91660675 -0.04639787 4.375 -0.0625 C5.18710937 -0.07410156 5.99921875 -0.08570313 6.8359375 -0.09765625 C9 0 9 0 11 1 C10.67 2.65 10.34 4.3 10 6 C7.69 5.67 5.38 5.34 3 5 C3.33 4.01 3.66 3.02 4 2 C2.68 1.34 1.36 0.68 0 0 Z " fill="#525252" transform="translate(347,219)"/>
<path d="M0 0 C0.90105469 0.02707031 1.80210937 0.05414063 2.73046875 0.08203125 C3.76107422 0.13423828 3.76107422 0.13423828 4.8125 0.1875 C4.8125 0.5175 4.8125 0.8475 4.8125 1.1875 C3.575 1.27 2.3375 1.3525 1.0625 1.4375 C-2.02377693 1.81919503 -3.04371727 2.07398732 -5.5625 4.0625 C-6.83357715 5.72467782 -8.02680098 7.44645147 -9.1875 9.1875 C-8.58143939 3.73295455 -8.58143939 3.73295455 -6.96875 1.5 C-4.55377134 -0.27945796 -2.96462796 -0.11550499 0 0 Z " fill="#6C6C6C" transform="translate(384.1875,218.8125)"/>
</svg>
