<svg width="1920" height="1087" viewBox="0 0 1920 1087" fill="none" xmlns="http://www.w3.org/2000/svg">
<g clip-path="url(#clip0_19_170)">
<g clip-path="url(#clip1_19_170)">
<path d="M1687.48 953.583C1606.65 946.753 1526.06 956.911 1445.22 967.23C1364.37 977.55 1283.55 982.696 1202.72 980.123C1121.89 977.55 1041.06 969.803 960.229 971.474C879.398 973.67 798.566 986.576 717.735 993.029C637.032 999.48 555.943 999.48 475.241 993.029C394.409 986.589 313.578 973.683 232.746 967.244C151.915 960.804 70.8546 960.79 30.4389 960.79H-9.97681V1086.08H1929.98V992.975C1849.24 982.615 1768.22 959.645 1687.48 953.583Z" fill="#F0F8FE"/>
</g>
<rect x="-10" y="1081.08" width="1940" height="5" fill="#F0F8FE"/>
</g>
<defs>
<clipPath id="clip0_19_170">
<rect width="1920" height="1086.08" fill="white"/>
</clipPath>
<clipPath id="clip1_19_170">
<rect width="1940" height="134.72" fill="white" transform="translate(-10 951.36)"/>
</clipPath>
</defs>
</svg>
